<?xml version="1.0" standalone="no"?>
<!DOCTYPE svg PUBLIC "-//W3C//DTD SVG 20010904//EN"
 "http://www.w3.org/TR/2001/REC-SVG-20010904/DTD/svg10.dtd">
<svg version="1.0" xmlns="http://www.w3.org/2000/svg"
 width="174.000000pt" height="174.000000pt" viewBox="0 0 174.000000 174.000000"
 preserveAspectRatio="xMidYMid meet">
<metadata>
Created by potrace 1.11, written by Peter Selinger 2001-2013
</metadata>
<g transform="translate(0.000000,174.000000) scale(0.100000,-0.100000)"
fill="#000000" stroke="none">
<path d="M1220 1594 l-335 -63 -412 -1 -413 0 0 -49 c0 -47 -2 -50 -27 -53
l-28 -3 -3 -552 -2 -553 175 0 175 0 177 -120 c97 -66 180 -120 185 -120 4 0
8 54 8 120 l0 120 510 0 510 0 -2 553 -3 552 -27 3 c-26 3 -28 6 -28 53 l0 49
-55 0 -55 0 0 65 c0 36 -3 64 -7 64 -5 -1 -159 -30 -343 -65z m290 -529 l0
-525 -22 -5 c-39 -9 -566 -105 -577 -105 -8 0 -11 156 -11 523 l0 523 298 56
c163 31 300 57 305 57 4 1 7 -235 7 -524z m-670 -120 l0 -525 -90 0 -90 0 0
-120 0 -121 -179 121 -178 120 -92 0 -91 0 0 525 0 525 360 0 360 0 0 -525z
m780 0 l0 -525 -197 0 c-108 0 -194 2 -192 4 2 2 72 16 154 31 83 14 158 29
168 31 16 5 17 37 17 495 l0 489 25 0 25 0 0 -525z"/>
<path d="M192 1305 c0 -16 2 -22 5 -12 2 9 2 23 0 30 -3 6 -5 -1 -5 -18z"/>
<path d="M343 1323 c76 -2 198 -2 270 0 73 1 11 3 -138 3 -148 0 -208 -2 -132
-3z"/>
<path d="M192 1160 c0 -14 2 -19 5 -12 2 6 2 18 0 25 -3 6 -5 1 -5 -13z"/>
<path d="M190 1010 l0 -30 278 2 277 3 3 28 3 27 -280 0 -281 0 0 -30z"/>
<path d="M190 865 l0 -25 280 0 280 0 0 25 0 25 -280 0 -280 0 0 -25z"/>
<path d="M188 715 l4 -25 279 0 279 0 0 25 0 25 -284 0 -283 0 5 -25z"/>
<path d="M180 560 l0 -30 282 2 282 3 0 25 0 25 -282 3 -282 2 0 -30z"/>
</g>
</svg>
